<svg xmlns="http://www.w3.org/2000/svg" viewBox="0 0 770 760" font-family="Heebo, Assistant, sans-serif">
<g fill="none" stroke-linecap="round" stroke-linejoin="round" stroke-width="13">
<path d="M270.0 750.0 L280.6 748.8 L291.2 747.4 L301.6 745.8 L312.0 744.1 L322.2 742.2 L332.2 740.2 L342.0 737.9 L351.6 735.6 L360.9 733.1 L370.0 730.4 L378.7 727.6 L387.1 724.7 L395.2 721.6 L402.9 718.5 L410.1 715.2 L417.0 711.8 L423.4 708.3 L429.4 704.7 L434.9 701.0 L440.0 697.2 L444.5 693.4 L448.5 689.4 L452.0 685.5 L455.0 681.5 L457.5 677.4 L459.4 673.3 L460.8 669.2 L461.6 665.1 L461.9 661.0 L461.6 656.9 L460.8 652.8 L459.5 648.7 L457.7 644.6 L455.3 640.6 L452.4 636.7 L449.0 632.7 L445.0 628.9 L440.7 625.1 L435.8 621.4 L430.5 617.8 L424.7 614.3 L418.6 610.8 L412.0 607.5 L405.0 604.3 L397.7 601.2 L390.1 598.2 L382.1 595.4 L373.8 592.7 L365.3 590.1 L356.5 587.7 L347.5 585.4 L338.3 583.2 L329.0 581.2 L319.5 579.4 L309.9 577.7 L300.2 576.2 L290.4 574.8 L280.7 573.6 L270.9 572.5 L261.1 571.6 L251.4 570.8 L241.8 570.2 L232.3 569.8 L223.0 569.5 L213.8 569.3 L204.7 569.3 L195.9 569.4 L187.4 569.7 L179.0 570.1 L171.0 570.6 L163.3 571.3 L155.9 572.1 L148.8 572.9 L142.2 573.9 L135.8 575.0 L129.9 576.2 L124.4 577.5 L119.4 578.8 L114.7 580.2 L110.6 581.7 L106.9 583.3 L103.6 584.9 L100.9 586.5 L98.6 588.2 L96.8 589.9 L95.5 591.7 L94.8 593.4 L94.5 595.1 L94.7 596.9 L95.4 598.6 L96.6 600.3 L98.3 602.0 L100.4 603.7 L103.1 605.3 L106.2 606.8 L109.7 608.3 L113.7 609.7 L118.1 611.1 L123.0 612.4 L128.2 613.6 L133.8 614.7 L139.8 615.7 L146.1 616.6 L152.8 617.4 L159.8 618.1 L167.0 618.7 L174.6 619.2 L182.4 619.5 L190.4 619.7 L198.6 619.8 L206.9 619.7 L215.5 619.5 L224.1 619.2 L232.9 618.7 L241.7 618.1 L250.6 617.3 L259.5 616.4 L268.4 615.4 L277.3 614.2 L286.1 612.9 L294.9 611.4 L303.5 609.8 L312.0 608.1 L320.4 606.2 L328.6 604.2 L336.7 602.0 L344.5 599.8 L352.0 597.4 L359.4 594.9 L366.4 592.3 L373.1 589.6 L379.6 586.8 L385.7 583.9 L391.4 580.9 L396.8 577.8 L401.8 574.6 L406.4 571.3 L410.6 568.0 L414.4 564.7 L417.8 561.2 L420.8 557.8 L423.3 554.3 L425.4 550.7 L427.0 547.1 L428.2 543.6 L428.9 540.0 L429.2 536.4 L429.0 532.8 L428.4 529.2 L427.3 525.6 L425.8 522.1 L423.9 518.6 L421.5 515.1 L418.7 511.7 L415.5 508.3 L411.9 505.0 L407.9 501.7 L403.5 498.5 L398.8 495.4 L393.7 492.4 L388.3 489.5 L382.6 486.6 L376.6 483.9 L370.3 481.2 L363.7 478.7 L356.9 476.3 L349.9 473.9 L342.6 471.7 L335.2 469.7 L327.7 467.7 L320.0 465.9 L312.2 464.2 L304.3 462.6 L296.3 461.1 L288.3 459.8 L280.2 458.6 L272.2 457.5 " stroke="#6BAA5F"></path>
<path d="M312.2 464.2 L304.3 462.6 L296.3 461.1 L288.3 459.8 L280.2 458.6 L272.2 457.5 L264.2 456.6 L256.2 455.7 L248.3 455.0 L240.5 454.5 L232.8 454.0 L225.2 453.7 L217.8 453.5 L210.6 453.4 L203.5 453.4 L196.7 453.6 L190.1 453.8 L183.8 454.1 L177.7 454.6 L171.9 455.1 L166.4 455.7 L161.2 456.4 L156.4 457.2 L151.9 458.0 L147.7 458.9 L143.9 459.9 L140.5 460.9 L137.4 462.0 L134.8 463.1 L132.5 464.2 L130.6 465.4 L129.2 466.6 L128.1 467.8 L127.4 469.0 L127.2 470.3 L127.3 471.5 L127.9 472.7 L128.8 473.9 L130.2 475.0 L131.9 476.2 L134.0 477.3 L136.5 478.4 L139.4 479.4 L142.6 480.4 L146.2 481.3 L150.1 482.1 L154.3 482.9 L158.9 483.6 L163.7 484.2 L168.8 484.8 L174.2 485.2 L179.8 485.6 L185.7 485.8 L191.8 486.0 L198.1 486.1 L204.5 486.1 L211.1 485.9 L217.9 485.7 L224.8 485.3 L231.7 484.8 L238.8 484.3 L245.9 483.6 L253.1 482.7 L260.2 481.8 L267.4 480.8 L274.5 479.6 L281.7 478.3 L288.7 477.0 L295.7 475.5 L302.5 473.9 L309.3 472.2 L315.9 470.3 L322.3 468.4 L328.6 466.4 L334.6 464.3 L340.5 462.1 L346.2 459.8 L351.6 457.4 L356.7 454.9 L361.6 452.4 L366.2 449.8 L370.5 447.1 L374.5 444.4 L378.2 441.6 L381.6 438.7 L384.6 435.8 L387.4 432.9 L389.7 429.9 L391.7 426.9 L393.4 423.8 L394.7 420.8 L395.7 417.7 L396.2 414.6 L396.5 411.5 L396.3 408.5 L395.8 405.4 L395.0 402.4 L393.8 399.3 L392.3 396.3 L390.4 393.3 L388.2 390.4 L385.7 387.5 L382.8 384.7 L379.7 381.9 L376.2 379.1 L372.5 376.5 L368.5 373.8 L364.2 371.3 L359.7 368.8 L354.9 366.4 L350.0 364.1 L344.8 361.9 L339.4 359.8 L333.9 357.7 L328.2 355.7 L322.4 353.9 L316.4 352.1 L310.4 350.4 L304.2 348.9 L298.0 347.4 L291.8 346.0 L285.5 344.7 L279.2 343.6 L272.9 342.5 L266.6 341.5 L260.3 340.7 L254.2 339.9 L248.0 339.2 L242.0 338.6 L236.1 338.2 L230.3 337.8 L224.7 337.5 L219.2 337.2 L213.9 337.1 L208.7 337.1 L203.8 337.1 L199.0 337.2 L194.5 337.4 L190.3 337.6 L186.2 337.9 L182.5 338.3 L179.0 338.7 L175.7 339.2 L172.8 339.7 L170.1 340.2 L167.8 340.8 L165.7 341.4 L164.0 342.1 L162.5 342.8 L161.4 343.4 L160.6 344.1 L160.1 344.8 L159.9 345.5 L160.0 346.3 L160.4 346.9 L161.2 347.6 L162.2 348.3 L163.6 348.9 L165.2 349.5 L167.1 350.1 L169.3 350.6 L171.8 351.1 L174.6 351.6 L177.6 352.0 L180.8 352.3 L184.3 352.6 L188.0 352.8 L191.9 353.0 L196.1 353.1 L200.4 353.1 L204.9 353.1 L209.5 353.0 L214.3 352.8 L219.2 352.5 L224.3 352.1 L229.4 351.7 L234.7 351.1 " stroke="#D8643E"></path>
<path d="M209.5 353.0 L214.3 352.8 L219.2 352.5 L224.3 352.1 L229.4 351.7 L234.7 351.1 L240.0 350.5 L245.3 349.8 L250.7 349.0 L256.2 348.2 L261.6 347.2 L267.0 346.2 L272.5 345.0 L277.8 343.8 L283.2 342.5 L288.4 341.1 L293.6 339.6 L298.7 338.1 L303.7 336.4 L308.5 334.7 L313.2 332.9 L317.8 331.1 L322.2 329.2 L326.4 327.2 L330.5 325.1 L334.3 323.0 L338.0 320.8 L341.4 318.6 L344.6 316.3 L347.6 314.0 L350.4 311.6 L352.9 309.2 L355.1 306.8 L357.1 304.3 L358.9 301.8 L360.4 299.3 L361.6 296.8 L362.5 294.2 L363.2 291.7 L363.6 289.1 L363.8 286.5 L363.7 284.0 L363.3 281.4 L362.6 278.9 L361.7 276.4 L360.6 273.9 L359.2 271.4 L357.5 269.0 L355.6 266.6 L353.5 264.2 L351.1 261.9 L348.6 259.6 L345.8 257.3 L342.8 255.1 L339.7 253.0 L336.3 250.9 L332.8 248.9 L329.2 246.9 L325.4 245.0 L321.4 243.1 L317.4 241.4 L313.2 239.6 L308.9 238.0 L304.6 236.4 L300.2 234.9 L295.7 233.5 L291.2 232.2 L286.6 230.9 L282.0 229.7 L277.5 228.6 L272.9 227.5 L268.3 226.5 L263.8 225.6 L259.4 224.8 L255.0 224.0 L250.6 223.3 L246.4 222.7 L242.2 222.1 L238.2 221.6 L234.2 221.1 L230.4 220.8 L226.8 220.4 L223.2 220.2 L219.9 219.9 L216.7 219.8 L213.7 219.7 L210.8 219.6 L208.1 219.5 L205.7 219.5 L203.4 219.6 L201.4 219.6 L199.5 219.7 L197.9 219.8 L196.4 220.0 L195.2 220.1 L194.3 220.3 L193.5 220.5 L193.0 220.7 L192.6 220.9 L192.6 221.0 L192.7 221.2 L193.0 221.4 L193.6 221.5 L194.4 221.7 L195.3 221.8 L196.5 221.9 L197.9 222.0 L199.5 222.1 L201.3 222.1 L203.2 222.1 L205.4 222.0 L207.7 221.9 L210.1 221.8 L212.7 221.6 L215.5 221.4 L218.4 221.1 L221.4 220.8 L224.5 220.4 L227.8 220.0 L231.1 219.5 L234.5 219.0 L238.0 218.4 L241.6 217.8 L245.2 217.1 L248.8 216.3 L252.5 215.5 L256.2 214.6 L259.9 213.6 L263.6 212.6 L267.3 211.5 L271.0 210.4 L274.6 209.2 L278.3 208.0 L281.8 206.7 L285.3 205.3 L288.7 203.9 L292.0 202.5 L295.3 200.9 L298.4 199.4 L301.5 197.8 L304.4 196.1 L307.2 194.4 L309.9 192.7 L312.4 190.9 L314.8 189.1 L317.1 187.2 L319.2 185.4 L321.1 183.4 L322.9 181.5 L324.5 179.5 L325.9 177.6 L327.2 175.6 L328.3 173.6 L329.2 171.5 L329.9 169.5 L330.5 167.5 L330.9 165.4 L331.1 163.4 L331.1 161.3 L331.0 159.3 L330.7 157.3 L330.2 155.3 L329.5 153.3 L328.7 151.3 L327.7 149.3 L326.6 147.4 L325.3 145.4 L323.9 143.5 L322.3 141.7 L320.6 139.8 L318.8 138.0 L316.8 136.2 L314.7 134.5 L312.6 132.8 L310.3 131.1 L307.9 129.5 L305.5 127.9 L302.9 126.4 " stroke="#7A98CF"></path>
</g>
<path d="M302.9 126.4 L319.9 126.6 M302.9 126.4 L310.0 141.9" fill="none" stroke="#7A98CF" stroke-width="9" stroke-linecap="round" stroke-linejoin="round"></path>
<path d="M 594 142 Q 608.3 123.28 620 139.4 Q 631.7 123.28 646 142" fill="none" stroke="#7A98CF" stroke-width="3.9" stroke-linecap="round"></path>
<text x="620" y="184" text-anchor="middle" fill="#7A98CF" font-size="23" font-weight="700">תחנה שלישית</text>
<text x="620" y="210" text-anchor="middle" fill="#7A98CF" font-size="17">דאייה ועונג</text>
<path d="M 594 332 Q 608.3 313.28 620 329.4 Q 631.7 313.28 646 332" fill="none" stroke="#D8643E" stroke-width="3.9" stroke-linecap="round"></path>
<text x="620" y="374" text-anchor="middle" fill="#D8643E" font-size="23" font-weight="700">תחנה שנייה</text>
<text x="620" y="400" text-anchor="middle" fill="#D8643E" font-size="17">לעוף על החלום</text>
<path d="M 594 522 Q 608.3 503.28 620 519.4 Q 631.7 503.28 646 522" fill="none" stroke="#6BAA5F" stroke-width="3.9" stroke-linecap="round"></path>
<text x="620" y="564" text-anchor="middle" fill="#6BAA5F" font-size="23" font-weight="700">תחנה ראשונה</text>
<text x="620" y="590" text-anchor="middle" fill="#6BAA5F" font-size="17">שתי רגליים על הקרקע</text>
</svg>